<svg width="170" height="204" viewBox="0 0 170 204" fill="none" xmlns="http://www.w3.org/2000/svg" xmlns:xlink="http://www.w3.org/1999/xlink">
<path d="M133.987,88.939C135.604,89.269 137.176,88.224 137.505,86.601C138.245,82.979 138.611,79.256 138.611,75.525C138.611,45.221 114.111,20.566 84,20.566C53.889,20.566 29.389,45.221 29.389,75.525C29.389,105.828 53.889,130.483 84,130.483C104.525,130.483 123.131,119.077 132.552,100.712C133.311,99.245 132.735,97.429 131.273,96.668C129.811,95.907 128.01,96.485 127.261,97.952C118.863,114.319 102.286,124.487 84,124.487C57.17,124.487 35.347,102.527 35.347,75.525C35.347,48.522 57.17,26.562 84,26.562C110.83,26.562 132.653,48.522 132.653,75.525C132.653,78.853 132.324,82.172 131.666,85.4C131.337,87.023 132.379,88.609 133.987,88.939Z" fill="#BABCBE"/>
<path d="M117.145,64.384C116.798,63.293 115.856,62.505 114.732,62.34L95.322,59.543L86.678,41.829C85.691,39.628 82.319,39.628 81.332,41.829L72.687,59.543L53.277,62.34C50.892,62.606 49.85,65.833 51.623,67.456L65.696,81.2L62.342,100.648C61.858,103.004 64.581,105.012 66.664,103.811L84.009,94.587L101.354,103.811C103.437,105.012 106.17,103.004 105.676,100.648L102.322,81.2L116.396,67.456C117.209,66.658 117.501,65.466 117.154,64.375L117.145,64.384ZM97.04,78.009C96.337,78.697 96.008,79.697 96.181,80.668L98.768,95.66L85.398,88.554C84.53,88.095 83.488,88.095 82.611,88.554L69.242,95.66L71.828,80.668C71.992,79.687 71.672,78.697 70.969,78.009L60.121,67.41L75.09,65.255C76.068,65.118 76.909,64.504 77.338,63.605L84,49.943L90.662,63.605C91.101,64.494 91.941,65.109 92.91,65.255L107.879,67.41L97.031,78.009L97.04,78.009Z" fill="#BABCBE"/>
<path d="M167.589,178.18L138.474,127.43C151.222,113.887 159.053,95.614 159.053,75.525C159.053,33.879 125.388,-0.009 84,-0.009C71.27,-0.009 58.687,3.255 47.62,9.444C46.185,10.251 45.664,12.076 46.459,13.524C47.254,14.973 49.073,15.496 50.508,14.689C60.688,8.995 72.275,5.987 84,5.987C122.098,5.987 153.095,37.18 153.095,75.525C153.095,113.869 122.098,145.062 84,145.062C45.902,145.062 14.905,113.878 14.905,75.534C14.905,54.968 23.888,35.566 39.542,22.308C40.803,21.244 40.958,19.347 39.907,18.081C38.847,16.816 36.965,16.651 35.713,17.714C18.706,32.119 8.956,53.189 8.956,75.534C8.956,95.65 16.815,113.961 29.599,127.503L21.356,141.871C19.382,145.199 24.61,148.271 26.52,144.869L34.013,131.804C42.978,139.881 53.88,145.823 65.924,148.83L40.218,193.63L33.647,172.807C33.181,171.331 31.674,170.46 30.175,170.79L8.965,175.475L19.574,156.982C20.397,155.551 19.913,153.717 18.487,152.883C17.061,152.058 15.243,152.544 14.42,153.983L0.411,178.364C-0.914,180.509 1.188,183.416 3.628,182.792L28.777,177.236L36.572,201.927C37.257,204.357 40.803,204.753 41.991,202.515L72.065,150.096C75.958,150.728 79.942,151.058 84,151.058C88.057,151.058 92.115,150.719 96.035,150.087L114.093,181.573C114.641,182.535 115.646,183.067 116.679,183.067C117.181,183.067 117.693,182.939 118.168,182.664C119.594,181.839 120.078,180.005 119.256,178.565L102.185,148.812C114.221,145.786 125.114,139.826 134.069,131.739L159.053,175.292L137.843,170.607C136.335,170.277 134.837,171.148 134.371,172.624L127.8,193.446L126.21,190.677C125.388,189.247 123.569,188.752 122.144,189.577C120.718,190.402 120.234,192.236 121.056,193.676L126.018,202.331C127.206,204.569 130.752,204.165 131.437,201.745L139.232,177.052L164.381,182.609C166.821,183.232 168.923,180.326 167.598,178.18L167.589,178.18Z" fill="#BABCBE"/>
</svg>
