<svg width="202" height="190" viewBox="0 0 202 190" fill="none" xmlns="http://www.w3.org/2000/svg" xmlns:xlink="http://www.w3.org/1999/xlink">
<path d="M179.214,95.034L157.24,61.236C155.542,58.619 152.654,57.058 149.519,57.058L52.554,57.058C49.419,57.058 46.545,58.619 44.832,61.236L22.786,95.048C20.537,98.503 20.885,103.057 23.628,106.136L94.121,184.964C95.862,186.916 98.373,188.029 100.985,188.029C103.612,188.029 106.109,186.916 107.865,184.964L178.357,106.136C181.1,103.071 181.449,98.503 179.214,95.063L179.214,95.034ZM145.063,64.907L126.587,93.371L108.097,64.907L145.078,64.907L145.063,64.907ZM119.331,96.682L82.655,96.682L100.985,68.463L119.316,96.682L119.331,96.682ZM93.903,64.907L75.456,93.299L57.024,64.907L93.903,64.907ZM49.724,68.145L68.257,96.682L31.117,96.682L49.724,68.145ZM32.786,104.546L72.495,104.546L93.496,172.431L32.786,104.546ZM101,169.988L80.754,104.546L121.246,104.546L101,169.988ZM108.504,172.417L129.505,104.531L169.214,104.531L108.504,172.417ZM133.844,96.682L152.364,68.16L170.897,96.682L133.844,96.682Z" fill="#BABCBE"/>
<path d="M11.974,96.667L3.948,96.667C1.771,96.667 0,98.431 0,100.599C0,102.768 1.771,104.531 3.948,104.531L11.974,104.531C14.151,104.531 15.921,102.768 15.921,100.599C15.921,98.431 14.151,96.667 11.974,96.667Z" fill="#BABCBE"/>
<path d="M198.052,96.667L190.026,96.667C187.849,96.667 186.079,98.431 186.079,100.599C186.079,102.768 187.849,104.531 190.026,104.531L198.052,104.531C200.229,104.531 202,102.768 202,100.599C202,98.431 200.229,96.667 198.052,96.667Z" fill="#BABCBE"/>
<path d="M172.465,29.49C170.926,27.958 168.43,27.958 166.892,29.49L153.786,42.544C152.247,44.076 152.247,46.563 153.786,48.095C154.555,48.861 155.571,49.252 156.573,49.252C157.574,49.252 158.59,48.861 159.359,48.095L172.465,35.041C174.003,33.509 174.003,31.023 172.465,29.49Z" fill="#BABCBE"/>
<path d="M48.388,42.472L35.283,29.418C33.744,27.886 31.248,27.886 29.709,29.418C28.171,30.95 28.171,33.437 29.709,34.969L42.815,48.023C43.584,48.789 44.6,49.179 45.602,49.179C46.603,49.179 47.619,48.789 48.388,48.023C49.927,46.49 49.927,44.004 48.388,42.472Z" fill="#BABCBE"/>
<path d="M101.102,0C98.925,0 97.154,1.764 97.154,3.932L97.154,29.548C97.154,31.716 98.925,33.48 101.102,33.48C103.279,33.48 105.049,31.716 105.049,29.548L105.049,3.932C105.049,1.764 103.279,0 101.102,0Z" fill="#BABCBE"/>
<path d="M103.888,40.057C103.148,39.32 102.132,38.901 101.102,38.901C100.071,38.901 99.041,39.32 98.315,40.057C97.589,40.795 97.154,41.807 97.154,42.833C97.154,43.859 97.575,44.886 98.315,45.609C99.055,46.346 100.071,46.765 101.102,46.765C102.132,46.765 103.163,46.346 103.888,45.609C104.628,44.871 105.049,43.859 105.049,42.833C105.049,41.807 104.628,40.78 103.888,40.057Z" fill="#BABCBE"/>
</svg>
