<svg width="160" height="160" viewBox="0 0 160 160" fill="none" xmlns="http://www.w3.org/2000/svg" xmlns:xlink="http://www.w3.org/1999/xlink">
<path d="M80,97.417C81.726,97.417 83.106,98.821 83.106,100.523C83.106,102.226 81.703,103.63 80,103.63C78.297,103.63 76.894,102.226 76.894,100.523C76.894,98.821 78.297,97.417 80,97.417Z" fill="#BABCBE"/>
<path d="M54.713,114.152C55.581,115.563 57.429,116.003 58.84,115.135C60.251,114.267 60.691,112.419 59.823,111.008L54.713,114.152ZM42.657,88.835L45.212,87.263C44.659,86.364 43.673,85.821 42.617,85.836C41.561,85.85 40.59,86.418 40.061,87.332L42.657,88.835ZM3.451,156.549L0.855,155.046C0.318,155.974 0.317,157.118 0.852,158.047C1.388,158.976 2.379,159.549 3.451,159.549L3.451,156.549ZM156.549,156.549L156.549,159.549C157.621,159.549 158.612,158.976 159.148,158.047C159.683,157.118 159.682,155.974 159.145,155.046L156.549,156.549ZM117.342,88.835L119.939,87.332C119.41,86.418 118.439,85.85 117.383,85.836C116.327,85.821 115.341,86.364 114.787,87.263L117.342,88.835ZM100.177,111.008C99.309,112.419 99.749,114.267 101.16,115.135C102.571,116.003 104.419,115.563 105.287,114.152L100.177,111.008ZM59.823,111.008L45.212,87.263L40.102,90.407L54.713,114.152L59.823,111.008ZM40.061,87.332L0.855,155.046L6.048,158.052L45.254,90.338L40.061,87.332ZM3.451,159.549L156.549,159.549L156.549,153.549L3.451,153.549L3.451,159.549ZM159.145,155.046L119.939,87.332L114.746,90.338L153.952,158.052L159.145,155.046ZM114.787,87.263L100.177,111.008L105.287,114.152L119.898,90.407L114.787,87.263Z" fill="#BABCBE"/>
<path d="M127.235,158.121C128.104,159.532 129.952,159.972 131.363,159.104C132.774,158.235 133.213,156.387 132.345,154.976L127.235,158.121ZM80,75.651L82.555,74.079C82.009,73.192 81.042,72.651 80,72.651C78.958,72.651 77.991,73.192 77.445,74.079L80,75.651ZM27.655,154.976C26.787,156.387 27.227,158.235 28.638,159.104C30.049,159.972 31.896,159.532 32.765,158.121L27.655,154.976ZM132.345,154.976L82.555,74.079L77.445,77.224L127.235,158.121L132.345,154.976ZM77.445,74.079L27.655,154.976L32.765,158.121L82.555,77.224L77.445,74.079Z" fill="#BABCBE"/>
<path d="M89.573,109.237C88.705,107.825 86.857,107.385 85.446,108.253C84.035,109.121 83.594,110.969 84.462,112.38L89.573,109.237ZM104.94,145.673C105.808,147.084 107.655,147.525 109.067,146.657C110.478,145.789 110.918,143.941 110.05,142.53L104.94,145.673ZM84.462,112.38L104.94,145.673L110.05,142.53L89.573,109.237L84.462,112.38Z" fill="#BABCBE"/>
<line x1="77" y1="3.451" x2="77" y2="75.651" stroke="#BABCBE" stroke-width="3" stroke-miterlimit="3.999327" stroke-linecap="round" stroke-linejoin="round"/>
<path d="M80,0.451C78.343,0.451 77,1.794 77,3.451C77,5.108 78.343,6.451 80,6.451L80,0.451ZM129.79,3.451L132.132,5.326C132.853,4.425 132.994,3.192 132.494,2.152C131.995,1.112 130.943,0.451 129.79,0.451L129.79,3.451ZM117.343,19.005L115,17.13C114.123,18.226 114.123,19.784 115,20.879L117.343,19.005ZM129.79,34.558L129.79,37.558C130.943,37.558 131.995,36.897 132.494,35.858C132.994,34.818 132.853,33.584 132.132,32.684L129.79,34.558ZM80,31.558C78.343,31.558 77,32.902 77,34.558C77,36.215 78.343,37.558 80,37.558L80,31.558ZM80,6.451L129.79,6.451L129.79,0.451L80,0.451L80,6.451ZM127.448,1.577L115,17.13L119.685,20.879L132.132,5.326L127.448,1.577ZM115,20.879L127.448,36.433L132.132,32.684L119.685,17.13L115,20.879ZM129.79,31.558L80,31.558L80,37.558L129.79,37.558L129.79,31.558Z" fill="#BABCBE"/>
</svg>
