<svg width="56" height="54" viewBox="0 0 56 54" fill="none" xmlns="http://www.w3.org/2000/svg" xmlns:xlink="http://www.w3.org/1999/xlink">
<path d="M45.578,53.943L10.422,53.943C5.004,53.943 0.624,49.623 0.624,44.28L0.624,9.72C0.624,4.377 5.004,0.057 10.422,0.057L45.578,0.057C50.996,0.057 55.376,4.377 55.376,9.72L55.376,44.393C55.26,49.737 50.88,53.943 45.578,53.943Z" fill="#117BB8"/>
<rect  x="15.609" y="20.974" width="5.648" height="18.076" fill="#FFFFFF"/>
<path d="M18.375,18.701C20.22,18.701 21.718,17.223 21.718,15.404C21.718,13.585 20.22,12.107 18.375,12.107C16.531,12.107 15.033,13.585 15.033,15.404C15.033,17.223 16.531,18.701 18.375,18.701Z" fill="#FFFFFF"/>
<path d="M30.248,29.614C30.248,27.113 31.4,25.522 33.706,25.522C35.78,25.522 36.818,27 36.818,29.614L36.818,39.05L42.466,39.05L42.466,27.682C42.466,22.907 39.7,20.52 35.78,20.52C31.861,20.52 30.248,23.475 30.248,23.475L30.248,21.088L24.83,21.088L24.83,39.164L30.248,39.164C30.248,39.05 30.248,32.343 30.248,29.614Z" fill="#FFFFFF"/>
</svg>
