<svg width="54" height="54" viewBox="0 0 54 54" fill="none" xmlns="http://www.w3.org/2000/svg" xmlns:xlink="http://www.w3.org/1999/xlink">
<path d="M42.507,53.489L10.117,53.489C4.239,53.489 -0.602,48.828 -0.602,42.916L-0.602,11.084C-0.602,5.286 4.123,0.512 10.117,0.512L42.507,0.512C48.386,0.512 53.227,5.173 53.227,11.084L53.227,43.03C53.112,48.828 48.386,53.489 42.507,53.489Z" fill="#BA0614"/>
<path d="M32.248,9.379L13.46,9.379C12.653,9.379 11.846,10.061 11.846,10.97L11.846,43.371C11.846,44.166 12.538,44.962 13.46,44.962L39.164,44.962C39.971,44.962 40.778,44.28 40.778,43.371L40.778,18.019L32.248,9.379Z" fill="#FFFFFF"/>
<path d="M33.747,18.019C33.055,18.019 32.479,17.45 32.479,16.768L32.248,9.379L40.778,18.019L33.747,18.019Z" fill="#FD0000"/>
<path d="M32.248,9.379L40.663,18.019L33.747,18.019C33.055,18.019 32.479,17.45 32.479,16.768L32.248,9.379ZM32.133,9.379L32.364,16.768C32.364,17.45 32.94,18.133 33.747,18.133L40.778,18.133L32.133,9.379Z" fill="#FD0000"/>
<rect  x="16.457" y="22.339" width="19.48" height="1.137" fill="#BABCBE"/>
<rect  x="16.457" y="24.271" width="19.48" height="1.137" fill="#BABCBE"/>
<rect  x="16.457" y="26.204" width="19.48" height="1.137" fill="#BABCBE"/>
<rect  x="16.457" y="28.137" width="19.48" height="1.137" fill="#BABCBE"/>
<rect  x="16.457" y="30.069" width="19.48" height="1.137" fill="#BABCBE"/>
<rect  x="21.875" y="15.745" width="8.069" height="0.568" fill="#BABCBE"/>
<rect  x="21.875" y="16.882" width="8.069" height="0.568" fill="#BABCBE"/>
<rect  x="21.875" y="18.019" width="8.069" height="0.568" fill="#BABCBE"/>
<rect  x="21.875" y="19.156" width="8.069" height="0.568" fill="#BABCBE"/>
<rect  x="16.457" y="15.745" width="4.034" height="3.979" fill="#BABCBE"/>
<path d="M13.114,44.962L39.28,44.962C39.971,44.962 40.547,44.393 40.547,43.711L40.547,33.821L11.731,33.821L11.731,43.711C11.846,44.393 12.423,44.962 13.114,44.962Z" fill="#FD0000"/>
<path d="M18.647,36.095L21.99,36.095C22.681,36.322 23.142,36.891 23.142,37.573L23.142,39.051C23.142,39.505 23.027,39.846 22.797,40.074C22.566,40.415 22.105,40.642 21.413,40.642L20.491,40.642C20.414,40.642 20.376,40.68 20.376,40.756L20.376,42.802C20.376,42.916 20.261,42.916 20.261,42.916L18.878,42.916C18.762,42.916 18.762,42.802 18.762,42.688L18.647,36.095ZM20.376,37.573L20.376,39.164L20.491,39.278L21.183,39.278C21.298,39.278 21.529,39.164 21.529,39.051L21.529,37.686C21.529,37.459 21.413,37.345 21.183,37.345L20.491,37.345C20.376,37.345 20.376,37.459 20.376,37.573C20.376,37.497 20.376,37.497 20.376,37.573Z" fill="#FFFFFF"/>
<path d="M27.061,36.095C27.522,36.208 27.868,36.322 28.099,36.549C28.214,36.777 28.329,37.118 28.329,37.345L28.329,41.438C28.329,41.779 28.099,42.12 27.868,42.461C27.638,42.802 27.177,42.916 26.831,42.916L23.949,42.916C23.949,42.916 23.834,42.802 23.834,42.688L23.834,36.322C23.834,36.208 23.834,36.095 23.949,36.095L27.061,36.095ZM25.448,37.345L25.448,41.552C25.448,41.552 25.448,41.665 25.563,41.665L26.255,41.665C26.6,41.665 26.716,41.552 26.716,41.324L26.716,37.686C26.716,37.459 26.485,37.345 26.139,37.345L25.448,37.345Z" fill="#FFFFFF"/>
<path d="M29.136,36.095L33.747,36.095C33.862,36.095 33.862,36.208 33.862,36.322L33.862,37.345C33.862,37.459 33.862,37.573 33.747,37.573L31.096,37.573L30.98,37.686L30.98,38.937C30.98,38.937 30.98,39.051 31.096,39.051L33.055,39.051C33.171,39.051 33.171,39.164 33.171,39.164L33.171,40.301C33.171,40.377 33.132,40.415 33.055,40.415L31.096,40.415L31.096,42.688L30.98,42.802L29.252,42.802C29.252,42.802 29.136,42.688 29.136,42.461L29.136,36.095Z" fill="#FFFFFF"/>
</svg>
