<svg width="56" height="54" viewBox="0 0 56 54" fill="none" xmlns="http://www.w3.org/2000/svg" xmlns:xlink="http://www.w3.org/1999/xlink">
<path d="M44.954,54L9.798,54C4.38,54 0,49.68 0,44.337L0,9.663C0,4.32 4.38,0 9.798,0L44.954,0C50.371,0 54.751,4.32 54.751,9.663L54.751,44.337C54.636,49.68 50.256,54 44.954,54Z" fill="#3E5C9A"/>
<path d="M23.168,43.314L29.854,43.314L29.854,26.83L34.464,26.83L34.926,21.373L29.854,21.373L29.854,18.19C29.854,16.939 30.084,16.371 31.352,16.371L34.926,16.371L34.926,10.687L30.315,10.687C25.358,10.687 23.168,12.847 23.168,16.939L23.168,21.373L19.71,21.373L19.71,26.943L23.168,26.943L23.168,43.314Z" fill="#FFFFFF"/>
</svg>
