<svg width="56" height="54" viewBox="0 0 56 54" fill="none" xmlns="http://www.w3.org/2000/svg" xmlns:xlink="http://www.w3.org/1999/xlink">
<path d="M45.266,54L10.11,54C4.692,54 0.312,49.68 0.312,44.337L0.312,9.663C0.312,4.32 4.692,0 10.11,0L45.266,0C50.683,0 55.063,4.32 55.063,9.663L55.063,44.337C54.948,49.68 50.568,54 45.266,54Z" fill="url(#pf_0_i_1797_279;499_35)"/>
<path d="M27.63,14.893C31.665,14.893 32.126,14.893 33.739,15.006C35.238,15.12 36.045,15.347 36.506,15.461C37.197,15.688 37.658,16.029 38.235,16.598C38.811,17.166 39.042,17.621 39.387,18.303C39.618,18.872 39.848,19.554 39.848,21.032C39.964,22.623 39.964,23.078 39.964,27.057C39.964,31.036 39.964,31.49 39.848,33.082C39.733,34.56 39.503,35.356 39.387,35.81C39.157,36.493 38.811,36.947 38.235,37.516C37.658,38.084 37.197,38.311 36.506,38.653C35.929,38.88 35.238,39.107 33.739,39.107C32.126,39.221 31.665,39.221 27.63,39.221C23.596,39.221 23.135,39.221 21.521,39.107C20.023,38.994 19.216,38.766 18.755,38.653C18.063,38.425 17.602,38.084 17.026,37.516C16.449,36.947 16.219,36.493 15.873,35.81C15.643,35.242 15.412,34.56 15.412,33.082C15.297,31.49 15.297,31.036 15.297,27.057C15.297,23.078 15.297,22.623 15.412,21.032C15.527,19.554 15.758,18.758 15.873,18.303C16.104,17.621 16.449,17.166 17.026,16.598C17.602,16.029 18.063,15.802 18.755,15.461C19.331,15.234 20.023,15.006 21.521,15.006C23.135,14.893 23.596,14.893 27.63,14.893ZM27.63,12.278C23.596,12.278 23.02,12.278 21.406,12.392C19.792,12.505 18.755,12.733 17.717,13.074C16.68,13.415 15.873,13.983 15.066,14.779C14.259,15.575 13.683,16.37 13.337,17.394C12.991,18.303 12.761,19.44 12.646,21.032C12.53,22.623 12.53,23.078 12.53,27.17C12.53,31.263 12.53,31.718 12.646,33.309C12.761,34.901 12.991,35.924 13.337,36.947C13.683,37.97 14.259,38.766 15.066,39.562C15.873,40.358 16.68,40.926 17.717,41.267C18.639,41.608 19.792,41.836 21.406,41.949C23.02,42.063 23.481,42.063 27.63,42.063C31.78,42.063 32.241,42.063 33.855,41.949C35.468,41.836 36.506,41.608 37.543,41.267C38.58,40.926 39.387,40.358 40.194,39.562C41.001,38.766 41.577,37.97 41.923,36.947C42.269,36.038 42.5,34.901 42.615,33.309C42.73,31.718 42.73,31.263 42.73,27.17C42.73,23.078 42.73,22.623 42.615,21.032C42.5,19.44 42.269,18.417 41.923,17.394C41.577,16.37 41.001,15.575 40.194,14.779C39.387,13.983 38.58,13.415 37.543,13.074C36.621,12.733 35.468,12.505 33.855,12.392C32.241,12.278 31.665,12.278 27.63,12.278Z" fill="#FFFFFF"/>
<path d="M27.63,19.44C23.365,19.44 19.907,22.85 19.907,27.057C19.907,31.263 23.365,34.674 27.63,34.674C31.895,34.674 35.353,31.263 35.353,27.057C35.353,22.85 31.895,19.44 27.63,19.44ZM27.63,31.945C24.864,31.945 22.674,29.785 22.674,27.057C22.674,24.328 24.864,22.168 27.63,22.168C30.397,22.168 32.587,24.328 32.587,27.057C32.587,29.785 30.397,31.945 27.63,31.945Z" fill="#FFFFFF"/>
<path d="M37.428,19.213C37.428,20.236 36.621,21.031 35.584,21.031C34.546,21.031 33.739,20.236 33.739,19.213C33.739,18.189 34.546,17.394 35.584,17.394C36.621,17.394 37.428,18.189 37.428,19.213Z" fill="#FFFFFF"/>
<defs>
<radialGradient id="pf_0_i_1797_279;499_35" cx="0" cy="0" r="1" gradientUnits="userSpaceOnUse" gradientTransform="matrix(50.538317 0 0 49.844841 -0.53 27.091)">
<stop stop-color="#F5EC53"/>
<stop offset="0.24" stop-color="#E48244"/>
<stop offset="0.4" stop-color="#D15767"/>
<stop offset="0.49" stop-color="#C84278"/>
<stop offset="1" stop-color="#192CFA"/>
</radialGradient>
</defs>
</svg>
