<svg width="380" height="136" viewBox="0 0 380 136" fill="none" xmlns="http://www.w3.org/2000/svg" xmlns:xlink="http://www.w3.org/1999/xlink">
<path d="M370.442,22L9.558,22C4.279,22 0,25.992 0,30.917L0,104.327C0,109.251 4.279,113.243 9.558,113.243L370.442,113.243C375.72,113.243 380,109.251 380,104.327L380,30.917C380,25.992 375.72,22 370.442,22Z" fill="#ED1C24"/>
<path d="M137.874,39.48L134.903,55.211L130.635,55.211C130.907,50.35 130.238,43.325 122.039,43.325L116.239,43.325L107.425,83.56C106.292,89.511 107.202,91.343 113.838,91.343L113.145,95.065L80.095,95.065L80.798,91.343C88.516,91.343 91.063,88.933 92.176,82.839L100.835,43.325L95.648,43.325C87.449,43.325 84.069,50.35 82.464,55.211L78.222,55.211L81.317,39.48L137.874,39.48ZM233.16,43.325L228.548,43.325L223.326,66.748L223.652,66.748C228.022,66.748 231.368,66.412 233.704,65.71C236.036,65.011 238.03,63.752 239.682,61.931C241.33,60.11 242.492,57.743 243.15,54.814C244.106,50.572 243.662,47.448 241.83,45.417C239.456,42.762 236.506,43.325 233.16,43.325L233.16,43.325ZM206.113,39.48L234.828,39.48C235.51,39.477 236.154,39.48 236.766,39.48L239.672,39.48C245.762,39.48 248.294,40.101 250.374,40.881C253.626,42.099 256.292,43.525 257.996,46.028C259.688,48.518 260.174,51.46 259.418,54.815C258.498,58.912 255.37,62.31 251.362,64.987C248.814,66.684 245.492,67.951 241.406,68.792L252.556,87.608C254.608,91.053 256.366,91.35 262.068,91.35L261.354,95.065L239.092,95.065L239.092,94.687L224.418,69.544L222.586,69.544L219.42,83.875C218.47,88.999 219.816,91.322 225.226,91.322L225.226,91.363L224.52,95.064L193.372,95.064L193.372,95.059L194.097,91.342C199.895,91.342 203.176,88.362 203.875,84.191L211.658,49.691C212.66,45.254 211.219,43.324 207.187,43.324L205.364,43.324L205.364,43.375L206.113,39.478L206.113,39.48ZM149.165,72.341L165.167,72.341L161.893,52.806L161.893,52.808L149.165,72.341ZM166.165,77.935L145.754,77.935L140.189,86.646C138.005,89.879 138.798,91.569 143.153,91.569L148.486,91.557L147.726,95.065L120.897,95.065L121.601,91.343C131.32,91.343 130.632,91.207 135.697,83.435L157.035,50.687C157.772,49.554 158.558,48.328 159.142,47.229C160.817,44.075 159.039,43.364 155.931,43.325L154.331,43.328L155.059,39.48L175.136,39.48L182.896,85.758C183.406,89.289 185.043,91.35 189.977,91.35L189.276,95.065L160.973,95.065L161.674,91.354C165.359,91.354 168.545,90.896 167.392,85.243L166.166,77.935L166.165,77.935ZM66.243,69.242C68.329,72.25 68.762,75.582 67.976,79.064C66.842,84.058 63.51,87.897 59.142,90.852C54.198,94.184 48.59,95.732 42.5,95.732C40.658,95.732 38.802,95.578 36.998,95.212C34.929,94.774 32.837,94.038 30.887,93.276C29.995,92.93 28.89,92.585 27.915,92.585C27.178,92.585 26.397,92.895 25.765,93.23C24.914,93.673 24.224,94.338 23.644,95.064L19.35,95.064L23.328,74.089L28.107,74.089L28.115,75.007C28.159,79.321 29.157,83.794 32.546,86.966C35.411,89.664 38.849,91.041 42.939,91.041C45.805,91.041 48.534,90.436 50.883,88.875C52.713,87.661 54.238,86.078 54.714,83.994C54.953,82.955 54.864,81.943 54.433,80.961C53.924,79.81 53.006,78.843 51.988,78.047C50.088,76.563 47.097,75.166 44.877,74.134C41.424,72.523 37.087,70.438 34.155,68.094C32.142,66.495 30.525,64.573 29.564,62.272C28.597,59.954 28.534,57.528 29.088,55.114C30.146,50.475 33.122,46.847 37.189,44.034C41.622,40.986 46.643,39.515 52.162,39.515C54.122,39.515 56.078,39.702 57.983,40.14C59.667,40.537 61.341,41.198 62.89,41.912C65.491,43.019 69.376,42.622 69.896,40.052L70.011,39.48L70.081,39.482L70.081,39.48L73.977,39.48L70.164,59.406L66.162,59.406C66.416,58.061 66.531,56.643 66.24,55.298C65.636,52.518 63.675,49.762 61.595,47.773C59.022,45.31 55.933,44.069 52.241,44.069C49.692,44.069 47.222,44.589 45.129,46C43.535,47.059 42.172,48.446 41.758,50.28C41.566,51.119 41.566,52 41.942,52.796C42.556,54.076 43.801,55.176 44.977,56.011C47.207,57.592 50.971,59.239 53.487,60.425C57.635,62.373 63.644,65.52 66.246,69.242L66.243,69.242Z" clip-rule="evenodd" fill-rule="evenodd" fill="#FFFFFF"/>
<rect  x="281.814" y="24.797" width="78.323" height="84.951" fill="#FFFFFF"/>
<path d="M369.036,24.797L306.643,24.797C302.244,24.797 298.678,28.124 298.678,32.227L298.678,102.318C298.678,106.421 302.244,109.748 306.643,109.748L369.036,109.748C373.435,109.748 377.001,106.421 377.001,102.318L377.001,32.227C377.001,28.124 373.435,24.797 369.036,24.797Z" fill="#FFFFFF"/>
<path d="M311.42,29.514L344.536,60.562C348.577,64.35 348.577,70.55 344.536,74.338L311.42,105.386L311.42,91.995L330.254,74.338C334.295,70.55 334.295,64.35 330.254,60.562L311.42,42.906L311.42,29.515L311.42,29.514Z" fill="#A52222"/>
<path d="M341.71,-0.359L362.191,91.834L317.826,135.258L297.344,43.065L341.71,-0.359Z" fill="url(#pf_0_1797_157)"/>
<path d="M311.42,40.899L332.393,60.562C336.433,64.35 336.433,70.55 332.393,74.338L311.42,94L311.42,81.371L318.921,74.338C322.962,70.55 322.962,64.351 318.921,60.563L311.42,53.53L311.42,40.901L311.42,40.899Z" clip-rule="evenodd" fill-rule="evenodd" fill="#ED1C24"/>
<defs>
<linearGradient id="pf_0_1797_157" x1="330.609" y1="27.841" x2="328.965" y2="105.184" gradientUnits="userSpaceOnUse">
<stop offset="0.18" stop-color="#ED1C24"/>
<stop offset="0.5" stop-color="#F99F1C"/>
<stop offset="0.86" stop-color="#ED1C24"/>
</linearGradient>
</defs>
</svg>
