<svg width="54" height="54" viewBox="0 0 54 54" fill="none" xmlns="http://www.w3.org/2000/svg" xmlns:xlink="http://www.w3.org/1999/xlink">
<path d="M44.202,54L9.046,54C3.629,54 -0.751,49.68 -0.751,44.337L-0.751,9.663C-0.751,4.32 3.629,0 9.046,0L44.202,0C49.62,0 54,4.32 54,9.663L54,44.337C53.885,49.794 49.505,54 44.202,54Z" fill="#57F676"/>
<path d="M41.551,26.375C41.321,18.53 34.866,12.278 26.797,12.278C18.729,12.278 12.389,18.417 12.043,26.034L12.043,26.716C12.043,29.444 12.85,31.945 14.118,34.105L11.467,41.836L19.651,39.335C21.726,40.471 24.146,41.154 26.797,41.154C34.981,41.154 41.551,34.674 41.551,26.716L41.551,26.375ZM26.797,38.88C24.261,38.88 21.956,38.198 19.997,36.834L15.271,38.311L16.769,33.764C15.271,31.718 14.464,29.33 14.464,26.716C14.464,26.375 14.464,25.92 14.579,25.579C15.155,19.44 20.458,14.665 26.913,14.665C33.368,14.665 38.785,19.554 39.246,25.806L39.246,26.716C39.246,33.423 33.713,38.88 26.797,38.88Z" clip-rule="evenodd" fill-rule="evenodd" fill="#FFFFFF"/>
<path d="M33.598,29.672C33.252,29.444 31.408,28.649 31.177,28.535C30.832,28.421 30.601,28.307 30.37,28.762C30.14,29.103 29.448,29.899 29.218,30.126C28.987,30.354 28.757,30.354 28.411,30.24C28.065,30.013 26.912,29.672 25.529,28.535C24.492,27.625 23.685,26.489 23.57,26.147C23.339,25.806 23.57,25.579 23.685,25.465C23.8,25.352 24.031,25.011 24.261,24.897C24.261,24.783 24.377,24.783 24.377,24.783C24.492,24.67 24.492,24.556 24.607,24.329C24.722,24.101 24.722,23.874 24.607,23.76C24.492,23.533 23.8,21.827 23.455,21.145C23.109,20.463 22.878,20.577 22.648,20.577L21.956,20.577C21.726,20.577 21.264,20.691 21.034,21.032C20.688,21.373 19.766,22.282 19.766,23.987C19.766,24.442 19.881,24.783 19.997,25.238C20.342,26.489 21.149,27.512 21.264,27.739C21.495,27.966 23.8,31.604 27.374,33.082C31.062,34.446 31.062,33.992 31.754,33.992C32.445,33.992 33.944,33.196 34.174,32.286C34.52,31.491 34.52,30.809 34.405,30.581C34.174,29.899 33.944,29.785 33.598,29.672Z" clip-rule="evenodd" fill-rule="evenodd" fill="#FFFFFF"/>
</svg>
